HIERARCHY
ROOT hip
{
	OFFSET 0.000000 0.000000 0.000000 
	CHANNELS 6 Xposition Yposition Zposition Xrotation Zrotation Yrotation
	JOINT abdomen
	{
		OFFSET 0.000000 3.402643 0.000000 
		CHANNELS 3 Xrotation Zrotation Yrotation
		JOINT chest
		{
			OFFSET 0.000000 8.438565 -0.680529 
			CHANNELS 3 Xrotation Zrotation Yrotation
			JOINT neck
			{
				OFFSET 0.000000 10.207942 -0.272212 
				CHANNELS 3 Xrotation Zrotation Yrotation
				JOINT head
				{
					OFFSET 0.000000 3.130431 0.000000 
					CHANNELS 3 Xrotation Zrotation Yrotation
					End Site
					{
						OFFSET 0.000000 3.130435 0.000000 
					}
				}
			}
			JOINT lCollar
			{
				OFFSET 3.470700 6.669187 -0.816635 
				CHANNELS 3 Yrotation Zrotation Xrotation
				JOINT lShldr
				{
					OFFSET 3.198488 0.000000 0.000000 
					CHANNELS 3 Zrotation Yrotation Xrotation
					JOINT lForeArm
					{
						OFFSET 10.139888 0.000000 0.000000 
						CHANNELS 3 Yrotation Zrotation Xrotation
						JOINT lHand
						{
							OFFSET 8.370511 0.000000 0.000000 
							CHANNELS 3 Zrotation Yrotation Xrotation
							End Site
							{
								OFFSET 4.083176 0.000000 0.000000 
							}
						}
					}
				}
			}
			JOINT rCollar
			{
				OFFSET -3.470700 6.669187 -0.816635 
				CHANNELS 3 Yrotation Zrotation Xrotation
				JOINT rShldr
				{
					OFFSET -3.198488 0.000000 0.000000 
					CHANNELS 3 Zrotation Yrotation Xrotation
					JOINT rForeArm
					{
						OFFSET -10.139888 0.000000 0.000000 
						CHANNELS 3 Yrotation Zrotation Xrotation
						JOINT rHand
						{
							OFFSET -8.370511 0.000000 0.000000 
							CHANNELS 3 Zrotation Yrotation Xrotation
							End Site
							{
								OFFSET -4.083176 0.000000 0.000000 
							}
						}
					}
				}
			}
		}
	}
	JOINT lThigh
	{
		OFFSET 5.308129 -1.633274 1.361059 
		CHANNELS 3 Xrotation Zrotation Yrotation
		JOINT lShin
		{
			OFFSET -2.041588 -20.007561 0.000000 
			CHANNELS 3 Xrotation Zrotation Yrotation
			JOINT lFoot
			{
				OFFSET 0.000000 -19.190928 -1.224953 
				CHANNELS 3 Xrotation Yrotation Zrotation
				End Site
				{
					OFFSET 0.000000 -2.449906 4.627600 
				}
			}
		}
	}
	JOINT rThigh
	{
		OFFSET -5.308129 -1.633274 1.361059 
		CHANNELS 3 Xrotation Zrotation Yrotation
		JOINT rShin
		{
			OFFSET 2.041588 -20.007561 0.000000 
			CHANNELS 3 Xrotation Zrotation Yrotation
			JOINT rFoot
			{
				OFFSET 0.000000 -19.190928 -1.224953 
				CHANNELS 3 Xrotation Yrotation Zrotation
				End Site
				{
					OFFSET 0.000000 -2.449906 4.627600 
				}
			}
		}
	}
}
MOTION
Frames: 8
Frame Time: 0.033333
35.159367 52.545830 -31.439976 -4.677734 -11.923827 128.193359 29.822811 -7.874106 -5.629282 -12.421875 9.404297 3.175424 51.063168 8.107644 2.471410 -19.541016 -13.906249 -15.927738 2.000000 -2.000000 0.000000 -95.507813 25.996094 -16.548452 -76.232422 -0.794060 -2.766968 24.746181 57.198833 15.401720 -2.000000 2.000000 0.000000 84.863281 -21.943359 -11.390368 117.808357 -1.419742 -3.051601 71.290977 -39.960613 -61.042324 -26.650013 7.167295 -12.983186 17.568722 -5.141736 -1.974160 1.984547 -1.843938 -8.906621 -15.542273 -5.738729 -17.773155 19.665173 4.856295 1.824590 -9.751873 -22.058794 11.402475 
35.293713 52.537945 -30.871685 -4.316406 -11.396484 128.789063 29.822811 -7.874106 -5.629282 -12.246095 9.394530 3.017578 51.063168 8.107644 2.471410 -18.466797 -13.544921 -16.523439 2.000000 -2.000000 0.000000 -95.703125 26.015625 -16.489857 -76.232155 -0.783745 -2.757788 24.626019 57.039276 15.344078 -2.000000 2.000000 0.000000 85.048828 -22.666016 -11.494140 117.632881 -1.399679 -3.060219 71.537766 -40.004139 -61.403946 -26.076059 7.694700 -12.891772 17.020035 -5.077794 -2.444328 2.642254 -2.764231 -9.065647 -15.174720 -5.321462 -18.689859 19.488359 4.862275 1.635966 -9.945651 -22.299702 10.789470 
35.412086 52.545830 -30.352348 -3.769531 -11.064452 129.179688 29.822811 -7.874106 -5.629282 -12.070313 9.550781 3.115235 51.063168 8.107644 2.471410 -17.412109 -13.056640 -17.013924 2.000000 -2.000000 0.000000 -95.908203 25.996094 -16.826172 -76.059204 -0.975197 -2.854243 24.593649 56.794022 15.194480 -2.000000 2.000000 0.000000 84.755859 -23.232422 -11.367187 117.632881 -1.399679 -3.060219 71.650139 -40.039970 -62.265343 -25.349400 8.222219 -12.774605 16.162590 -5.107538 -2.396632 3.389364 -3.703769 -9.389499 -14.478229 -4.889408 -18.917316 19.313793 4.940891 1.156734 -9.926785 -22.665710 10.337083 
35.518902 52.537945 -29.889938 -3.408203 -10.712890 129.794922 29.822811 -7.874106 -5.629282 -11.875000 9.697266 3.017579 51.063168 8.107644 2.471410 -16.533205 -12.568359 -17.607424 2.000000 -2.000000 0.000000 -96.347656 26.171875 -16.904301 -76.053497 -0.631287 -2.658964 24.071209 56.721954 14.519197 -2.000000 2.000000 0.000000 83.925781 -23.486328 -10.585938 117.627769 -1.399851 -3.226218 71.332382 -40.129467 -63.050514 -24.991478 8.748780 -13.256876 15.436895 -5.181749 -1.808766 4.138653 -4.846077 -9.480828 -14.076289 -4.419178 -20.373375 19.319359 4.851664 1.630445 -10.111062 -22.721010 8.960674 
35.598396 52.522198 -29.501127 -3.066406 -10.380860 130.263672 29.822811 -7.874106 -5.629282 -11.699220 9.687501 3.046875 51.063168 8.107644 2.471410 -15.478515 -11.943358 -18.136791 2.000000 -2.000000 0.000000 -96.201172 25.947266 -17.314455 -76.059204 -0.975197 -2.854243 24.466492 57.123135 15.288566 -2.000000 2.000000 0.000000 83.457031 -23.847656 -10.517578 117.633148 -1.399115 -3.069964 71.075203 -40.291012 -63.125462 -24.405029 8.905054 -12.882362 14.547196 -5.213615 -1.737473 5.069664 -5.900436 -9.430606 -13.686617 -4.361160 -21.088015 18.953171 4.862557 1.621044 -9.965095 -23.194080 8.696140 
35.649662 52.522198 -29.149809 -2.705078 -10.029297 130.691666 29.822811 -7.874106 -5.629282 -11.513671 9.843751 3.126670 51.063168 8.107644 2.471410 -14.433594 -11.318358 -18.644495 2.000000 -2.000000 0.000000 -96.318359 25.683594 -17.290691 -76.232155 -0.783745 -2.757788 24.736792 57.892773 15.498733 -2.000000 2.000000 0.000000 83.632813 -24.560547 -10.478516 117.633163 -1.389366 -3.069401 71.434120 -40.076542 -62.219200 -23.761583 9.412686 -12.257553 13.677929 -5.184208 -2.177228 5.788354 -6.755376 -9.085544 -13.307477 -4.108753 -21.986254 19.319359 4.851661 1.630444 -9.767450 -23.117958 8.375208 
35.689583 52.514320 -28.858778 -2.343750 -9.677734 131.326477 29.822811 -7.874106 -5.629282 -11.328126 9.833985 2.998047 51.063168 8.107644 2.471410 -13.378907 -10.712890 -19.296875 2.000000 -2.000000 0.000000 -96.376953 25.888670 -17.705080 -76.411324 -0.966577 -2.874300 25.041018 58.262566 15.948261 -2.000000 2.000000 0.000000 83.691406 -25.488283 -10.394827 117.808662 -1.399679 -3.060219 72.087227 -39.418751 -61.409412 -23.124687 9.734153 -11.577428 12.976731 -5.209815 -2.110979 6.747779 -7.963920 -8.677321 -12.935334 -4.068525 -22.524319 19.319359 4.851661 1.630444 -9.749060 -23.208014 8.060432 
35.703003 52.506439 -28.600958 -1.982422 -9.335938 131.775757 29.822811 -7.874106 -5.629282 -11.142578 9.990234 3.077866 51.063168 8.107644 2.471410 -12.519533 -10.000001 -19.794924 2.000000 -2.000000 0.000000 -96.943359 26.083984 -17.949221 -76.411324 -0.966577 -2.874300 25.198635 58.657890 16.126978 -2.000000 2.000000 0.000000 83.193359 -26.044924 -10.478517 117.815216 -1.220985 -3.274573 71.068375 -40.065380 -59.798573 -22.510870 9.861196 -10.858321 12.616732 -5.250974 -1.578084 7.486678 -9.264218 -7.947747 -12.719625 -3.999390 -23.232212 19.489498 4.856168 1.644759 -9.938552 -23.137167 7.667892 
